<svg width="18" height="18" viewBox="0 0 18 18" fill="none" xmlns="http://www.w3.org/2000/svg">
<g clip-path="url(#clip0_77_198)">
<path fill-rule="evenodd" clip-rule="evenodd" d="M10.4999 0.899902C14.1293 0.899902 17.0999 3.5798 17.0999 6.9299C17.0999 8.7263 16.2355 10.3799 14.7835 11.5109L14.7006 11.5724L14.6999 14.3645L11.6549 12.8647L11.5891 12.8764C11.3189 12.9179 11.0469 12.9441 10.7736 12.9546L10.4999 12.9599C10.1928 12.9599 9.88619 12.9391 9.58002 12.8983C9.46647 15.1579 7.59721 16.9559 5.31247 16.9559C4.84282 16.9591 4.38095 16.8835 3.94195 16.7355L3.70113 16.6454L0.724609 17.2779L1.34613 14.2949L1.25654 14.0543C1.13247 13.6883 1.05813 13.3054 1.0368 12.9138L1.03038 12.6779C1.03038 10.7179 2.34835 9.06576 4.14657 8.55953C3.98303 8.03413 3.89988 7.48726 3.89988 6.9299C3.89988 3.5798 6.87049 0.899902 10.4999 0.899902ZM5.30838 9.5999C3.60828 9.5999 2.23038 10.978 2.23038 12.6779C2.23038 13.1335 2.32911 13.5745 2.51717 13.9789L2.60117 14.1595L2.27538 15.7214L3.83427 15.3907L4.01564 15.4748C4.41954 15.6619 4.85707 15.759 5.30838 15.7559C7.00801 15.7559 8.38638 14.3775 8.38638 12.6779C8.38638 10.978 7.00848 9.5999 5.30838 9.5999ZM7.21488 11.7669L8.01038 12.5624L7.21488 13.3579L6.41939 12.5624L7.21488 11.7669ZM5.27939 11.7669L6.07488 12.5624L5.27939 13.3579L4.48389 12.5624L5.27939 11.7669ZM3.33738 11.7669L4.13288 12.5624L3.33738 13.3579L2.54189 12.5624L3.33738 11.7669ZM10.4999 2.0999C7.50724 2.0999 5.09988 4.27168 5.09988 6.9299C5.09988 7.3988 5.17479 7.85761 5.32059 8.29822L5.358 8.40018C7.35012 8.42282 9.01491 9.80691 9.46589 11.6655L9.43386 11.6604C9.79037 11.7262 10.1455 11.7599 10.4999 11.7599C10.785 11.7599 11.069 11.7393 11.3511 11.6986L11.6326 11.6514L11.8302 11.6135L13.4999 12.4357L13.5002 10.9492L13.7631 10.7703C15.1041 9.8579 15.8999 8.45361 15.8999 6.9299C15.8999 4.27168 13.4925 2.0999 10.4999 2.0999ZM11.2499 8.2499V9.7499H9.74988V8.2499H11.2499ZM10.4999 3.8159C11.498 3.8159 12.3066 4.62453 12.3066 5.62265C12.3066 6.22896 12.0389 6.63312 11.5591 6.98502L11.4447 7.06537C11.211 7.22269 11.1203 7.32742 11.1031 7.47526L11.0999 7.5329V8.1329H9.89988V7.5329C9.89988 6.91822 10.171 6.50883 10.6583 6.15156L10.7745 6.06997C11.0286 5.89888 11.1066 5.7937 11.1066 5.62265C11.1066 5.28727 10.8353 5.0159 10.4999 5.0159C10.1903 5.0159 9.93526 5.24713 9.89785 5.54649L9.89313 5.62265V6.22265H8.69313V5.62265C8.69313 4.62453 9.50176 3.8159 10.4999 3.8159Z" fill="white"/>
</g>
<defs>
<clipPath id="clip0_77_198">
<rect width="18" height="18" fill="white"/>
</clipPath>
</defs>
</svg>
