<svg width="23" height="26" viewBox="0 0 23 26" fill="none" xmlns="http://www.w3.org/2000/svg">
<path fill-rule="evenodd" clip-rule="evenodd" d="M3.92424 3.88835C8.10773 -0.29514 14.8905 -0.295141 19.074 3.88835C23.2575 8.07184 23.2575 14.8546 19.0201 19.0882L11.5061 25.571L3.92424 19.0381C-0.259251 14.8546 -0.259252 8.07184 3.92424 3.88835ZM17.6598 5.30256C14.2574 1.90012 8.74089 1.90012 5.33845 5.30256C1.93601 8.70501 1.93601 14.2215 5.28389 17.5733L11.5054 22.9302L17.6598 17.6239C20.9914 14.2923 21.0608 8.93394 17.868 5.51793L17.6598 5.30256ZM11.4998 7.13C13.8926 7.13 15.8323 9.06972 15.8323 11.4625C15.8323 13.8553 13.8926 15.795 11.4998 15.795C9.10707 15.795 7.16734 13.8553 7.16734 11.4625C7.16734 9.06972 9.10707 7.13 11.4998 7.13ZM11.4998 9.13C10.2116 9.13 9.16734 10.1743 9.16734 11.4625C9.16734 12.7507 10.2116 13.795 11.4998 13.795C12.788 13.795 13.8323 12.7507 13.8323 11.4625C13.8323 10.1743 12.788 9.13 11.4998 9.13Z" fill="#262626"/>
</svg>
