<svg width="18" height="18" viewBox="0 0 18 18" fill="none" xmlns="http://www.w3.org/2000/svg">
<path fill-rule="evenodd" clip-rule="evenodd" d="M4.45484 3.53296C6.96493 1.02287 11.0346 1.02287 13.5447 3.53296C16.0548 6.04306 16.0548 10.1127 13.5124 12.6529L9.00393 16.5425L4.45484 12.6228C1.94474 10.1127 1.94474 6.04306 4.45484 3.53296ZM12.6962 4.38149C10.6547 2.34002 7.34483 2.34002 5.30336 4.38149C3.2619 6.42296 3.2619 9.73283 5.27063 11.7439L9.00352 14.9581L12.6962 11.7743C14.6951 9.77536 14.7367 6.56032 12.8211 4.51071L12.6962 4.38149ZM9.0002 5.47795C10.4359 5.47795 11.5997 6.64179 11.5997 8.07745C11.5997 9.51311 10.4359 10.677 9.0002 10.677C7.56453 10.677 6.4007 9.51311 6.4007 8.07745C6.4007 6.64179 7.56453 5.47795 9.0002 5.47795ZM9.0002 6.67795C8.22728 6.67795 7.6007 7.30453 7.6007 8.07745C7.6007 8.85037 8.22728 9.47695 9.0002 9.47695C9.77312 9.47695 10.3997 8.85037 10.3997 8.07745C10.3997 7.30453 9.77312 6.67795 9.0002 6.67795Z" fill="white"/>
</svg>
