<svg width="21" height="21" viewBox="0 0 21 21" fill="none" xmlns="http://www.w3.org/2000/svg">
<path fill-rule="evenodd" clip-rule="evenodd" d="M15.0243 1.98423L15.2682 2.1725L15.3092 2.13353L16.7235 3.54775L16.6832 3.5875L16.8728 3.83268C19.2466 7.03196 19.1834 11.4701 16.6833 14.6035L20.8312 18.75L19.417 20.1642L15.2701 16.0166C11.7976 18.787 6.72288 18.5646 3.50763 15.3494C0.0534454 11.8952 0.0534454 6.29483 3.50763 2.84064C6.6478 -0.29953 11.5617 -0.585 15.0243 1.98423ZM4.92185 4.25485C2.24871 6.92799 2.24871 11.262 4.92185 13.9351C7.52073 16.534 11.6895 16.6062 14.3756 14.1517L14.6021 13.9351C17.201 11.3363 17.2732 7.16749 14.8187 4.48139L14.6021 4.25485L14.3756 4.03828C11.6895 1.58378 7.52073 1.65597 4.92185 4.25485Z" fill="#262626"/>
</svg>
