<svg width="18" height="18" viewBox="0 0 18 18" fill="none" xmlns="http://www.w3.org/2000/svg">
<path fill-rule="evenodd" clip-rule="evenodd" d="M11.6143 4.19044L11.7607 4.3034L11.7853 4.28002L12.6338 5.12855L12.6097 5.1524L12.7234 5.29951C14.1476 7.21908 14.1098 9.88195 12.6097 11.762L15.0984 14.2499L14.2499 15.0984L11.7618 12.6099C9.67828 14.2721 6.63343 14.1387 4.70429 12.2095C2.63177 10.137 2.63177 6.7768 4.70429 4.70429C6.58839 2.82018 9.5367 2.6489 11.6143 4.19044ZM5.55281 5.55281C3.94893 7.1567 3.94893 9.7571 5.55281 11.361C7.11215 12.9203 9.61341 12.9636 11.2251 11.4909L11.361 11.361C12.9203 9.80166 12.9636 7.3004 11.4909 5.68874L11.361 5.55281L11.2251 5.42287C9.61341 3.95017 7.11215 3.99348 5.55281 5.55281Z" fill="white"/>
</svg>
