<svg width="28" height="28" viewBox="0 0 28 28" fill="none" xmlns="http://www.w3.org/2000/svg">
<path fill-rule="evenodd" clip-rule="evenodd" d="M16.8336 0.5C22.8826 0.5 27.8336 4.9665 27.8336 10.55C27.8336 13.544 26.393 16.3 23.9731 18.185L23.8349 18.2875L23.8336 22.941L18.7586 20.4412L18.649 20.4609C18.1987 20.53 17.7453 20.5737 17.2898 20.5912L16.8336 20.6C16.3218 20.6 15.8108 20.5653 15.3005 20.4973C15.1113 24.2633 11.9958 27.26 8.18795 27.26C7.40519 27.2653 6.63541 27.1393 5.90373 26.8926L5.50238 26.7425L0.541504 27.7967L1.57738 22.825L1.42806 22.424C1.22127 21.814 1.09737 21.1757 1.06181 20.5232L1.05113 20.13C1.05113 16.8634 3.24774 14.1098 6.24477 13.2661C5.9722 12.3904 5.83363 11.4789 5.83363 10.55C5.83363 4.9665 10.7846 0.5 16.8336 0.5ZM8.18113 15C5.34762 15 3.05113 17.2968 3.05113 20.13C3.05113 20.8893 3.21568 21.6244 3.52911 22.2983L3.6691 22.5993L3.12613 25.2025L5.72427 24.6514L6.02656 24.7914C6.69972 25.1033 7.42894 25.2651 8.18113 25.26C11.0138 25.26 13.3111 22.9627 13.3111 20.13C13.3111 17.2968 11.0146 15 8.18113 15ZM11.3586 18.6117L12.6845 19.9375L11.3586 21.2633L10.0328 19.9375L11.3586 18.6117ZM8.1328 18.6117L9.45863 19.9375L8.1328 21.2633L6.80698 19.9375L8.1328 18.6117ZM4.89613 18.6117L6.22195 19.9375L4.89613 21.2633L3.5703 19.9375L4.89613 18.6117ZM16.8336 2.5C11.8459 2.5 7.83363 6.11962 7.83363 10.55C7.83363 11.3315 7.95847 12.0962 8.20148 12.8305L8.26382 13.0005C11.584 13.0382 14.3587 15.345 15.1103 18.4427L15.0569 18.4341C15.6511 18.5438 16.243 18.6 16.8336 18.6C17.3087 18.6 17.7821 18.5656 18.2524 18.4979L18.7215 18.4192L19.0509 18.356L21.8336 19.7262L21.8342 17.2489L22.2723 16.9507C24.5073 15.43 25.8336 13.0895 25.8336 10.55C25.8336 6.11962 21.8214 2.5 16.8336 2.5ZM18.0836 12.75V15.25H15.5836V12.75H18.0836ZM16.8336 5.36C18.4972 5.36 19.8449 6.70772 19.8449 8.37125C19.8449 9.38176 19.3986 10.0554 18.5991 10.6419L18.4083 10.7758C18.0189 11.038 17.8677 11.2125 17.8389 11.4589L17.8336 11.555V12.555H15.8336V11.555C15.8336 10.5305 16.2856 9.84822 17.0976 9.25276L17.2913 9.11677C17.7148 8.83163 17.8449 8.65634 17.8449 8.37125C17.8449 7.81228 17.3926 7.36 16.8336 7.36C16.3177 7.36 15.8926 7.74538 15.8302 8.24431L15.8224 8.37125V9.37125H13.8224V8.37125C13.8224 6.70772 15.1701 5.36 16.8336 5.36Z" fill="#262626"/>
</svg>
